# xmcd CD database file
#
# Track frame offsets:
#	150
#	12165
#	27344
#	40883
#	53492
#	67763
#	89900
#	106210
#	117871
#	139057
#	155032
#	175956
#	199196
#
# Disc length: 2827 seconds
#
# Revision: 0
# Processed by: cddbd v1.5.2PL0 Copyright (c) Steve Scherf et al.
# Submitted via: CDex 1.51
#
DISCID=ac0b090d
DTITLE=Very Cool Very Smooth - Very Cool Very Smooth
DYEAR=2000
DGENRE=Jazz
TTITLE0=Stan Getz - Don't Worry About Me
TTITLE1=Sarah Vaughn - Lover Man
TTITLE2=Errol Garner - Trio
TTITLE3=Dizzy Gillespie - All The Things You Are
TTITLE4=Billie Holiday - As Time Goes By
TTITLE5=Coleman Hawkins - Running Wild
TTITLE6=Stephane Grappelli - Like Someone In Love
TTITLE7=Frank Sinatra - It's Been A Long Time
TTITLE8=Jimmy Hamilton - I Can't Give You Anything But Love
TTITLE9=Duke Ellington - Little Posey
TTITLE10=Lester Young - These Foolish Things - Featuring Nat King Cole Trio and Buddy Rich
TTITLE11=Red Norvo - In A Mellow Tone
TTITLE12=Don Byas - September Song
EXTD=YEAR: 2000
EXTT0=
EXTT1=
EXTT2=
EXTT3=
EXTT4=
EXTT5=
EXTT6=
EXTT7=
EXTT8=
EXTT9=
EXTT10=
EXTT11=
EXTT12=
PLAYORDER=
